<?xml version="1.0" standalone="no"?>
<!DOCTYPE svg PUBLIC "-//W3C//DTD SVG 20010904//EN"
 "http://www.w3.org/TR/2001/REC-SVG-20010904/DTD/svg10.dtd">
<svg version="1.0" xmlns="http://www.w3.org/2000/svg"
 width="260.000000pt" height="260.000000pt" viewBox="0 0 260.000000 260.000000"
 preserveAspectRatio="xMidYMid meet">
<metadata>
Created by potrace 1.11, written by Peter Selinger 2001-2013
</metadata>
<g transform="translate(0.000000,260.000000) scale(0.100000,-0.100000)"
fill="#000000" stroke="none">
<path d="M2080 2383 c-14 -9 -27 -20 -30 -24 -3 -4 -52 -42 -110 -84 -58 -42
-106 -81 -108 -86 -2 -5 -10 -9 -17 -9 -7 0 -15 -4 -17 -8 -1 -5 -48 -42 -103
-83 -55 -40 -102 -77 -105 -81 -3 -4 -47 -35 -97 -70 -109 -75 -253 -186 -270
-208 -19 -24 -15 -38 14 -53 26 -14 26 -15 5 -21 -12 -4 -33 -1 -51 8 -17 9
-36 16 -44 16 -25 0 -28 -44 -6 -104 22 -63 20 -85 -10 -103 -18 -11 -21 -8
-37 42 -9 30 -22 62 -28 70 -15 21 -50 9 -40 -14 3 -9 11 -38 16 -65 8 -43 7
-51 -13 -72 -24 -26 -39 -23 -39 7 0 27 -18 24 -22 -3 -2 -15 -11 -24 -25 -26
-17 -3 -23 3 -28 30 -4 18 -10 37 -12 41 -6 11 -43 -22 -43 -38 0 -7 -18 -35
-40 -61 -22 -27 -40 -53 -40 -59 0 -5 -12 -21 -26 -34 -14 -13 -32 -38 -41
-55 -9 -17 -19 -33 -22 -36 -14 -11 -71 -89 -130 -178 -34 -50 -82 -117 -106
-147 -25 -30 -45 -58 -45 -62 0 -5 -18 -28 -40 -53 -22 -25 -42 -53 -46 -62
-3 -10 -10 -18 -15 -18 -5 0 -9 -6 -9 -14 0 -8 -4 -16 -8 -18 -16 -6 -102
-130 -102 -147 0 -19 39 -46 60 -42 19 4 41 27 66 71 10 19 22 38 27 41 8 6
97 140 97 146 0 2 11 16 25 31 14 15 25 31 25 37 0 5 14 25 30 44 17 18 30 40
30 47 0 8 4 14 9 14 5 0 12 8 14 17 4 14 5 12 6 -4 0 -13 -3 -23 -8 -23 -5 0
-13 -10 -17 -22 -4 -13 -9 -25 -13 -28 -3 -3 -16 -25 -29 -50 -13 -25 -32 -58
-42 -75 -10 -16 -19 -37 -19 -46 -1 -9 -8 -19 -16 -23 -8 -3 -15 -15 -15 -26
0 -11 -4 -20 -9 -20 -5 0 -14 -12 -20 -27 -5 -16 -24 -52 -41 -81 -36 -63 -37
-80 -7 -91 29 -11 33 -8 57 42 12 23 34 65 51 92 16 28 32 57 35 65 3 8 9 22
14 30 5 8 20 35 32 60 13 25 25 47 28 50 3 3 14 23 25 45 11 22 23 42 26 45 4
3 16 26 28 53 12 26 26 47 31 47 13 0 13 -17 0 -25 -5 -3 -10 -19 -10 -36 0
-16 -4 -29 -10 -29 -5 0 -12 -16 -16 -35 -3 -19 -10 -38 -15 -41 -5 -3 -9 -16
-9 -28 0 -13 -7 -29 -15 -36 -8 -7 -15 -23 -15 -35 0 -13 -8 -38 -17 -57 -31
-62 -33 -68 -33 -89 0 -11 -7 -27 -15 -35 -8 -9 -15 -27 -15 -40 0 -14 -7 -32
-15 -40 -18 -19 -20 -70 -2 -77 25 -9 57 12 63 43 4 17 11 33 15 36 5 3 9 18
9 33 0 16 7 34 15 41 8 7 15 25 15 41 0 16 4 29 10 29 5 0 12 16 16 35 3 19
10 38 15 41 5 3 9 15 9 27 0 12 7 31 15 41 8 11 15 31 15 44 0 13 7 30 15 38
8 9 15 26 15 39 0 13 5 27 10 30 6 3 10 18 10 31 0 28 17 28 34 1 8 -12 6 -24
-7 -46 -9 -16 -17 -44 -17 -63 0 -19 -4 -38 -9 -44 -9 -9 -25 -73 -40 -164 -4
-25 -13 -55 -19 -67 -7 -12 -12 -37 -12 -55 0 -19 -5 -39 -11 -45 -6 -6 -12
-35 -13 -65 -1 -46 2 -53 19 -56 35 -4 48 14 53 72 2 31 8 56 13 56 5 0 9 17
9 38 0 20 7 50 15 66 8 15 15 43 15 61 0 18 7 46 15 61 8 16 15 44 15 62 0 18
4 40 9 50 5 9 13 39 18 66 4 28 15 54 25 60 25 15 33 0 20 -37 -7 -19 -12 -78
-12 -133 0 -62 -4 -104 -11 -111 -7 -7 -16 -65 -20 -130 -5 -65 -11 -136 -14
-159 -7 -44 9 -68 42 -62 14 2 20 17 25 63 31 256 40 345 44 453 5 109 8 122
24 122 24 0 30 -61 38 -385 l7 -260 35 0 35 0 -3 175 c-2 96 -8 193 -13 215
-4 22 -9 88 -9 148 0 86 3 107 14 107 8 0 17 -13 21 -30 4 -16 11 -32 16 -35
5 -4 9 -30 9 -59 0 -30 6 -60 15 -72 8 -11 14 -42 15 -76 0 -31 4 -59 9 -62 4
-3 11 -34 14 -68 3 -34 10 -64 16 -66 6 -2 11 -26 11 -52 0 -51 26 -120 44
-120 16 1 47 26 40 33 -3 3 -10 32 -15 64 -20 139 -30 188 -39 197 -6 6 -10
33 -10 61 0 28 -5 56 -12 63 -7 7 -16 40 -20 75 -5 34 -11 79 -14 101 -4 26
-2 41 7 46 17 11 49 -31 49 -63 0 -14 5 -29 10 -32 6 -3 10 -14 10 -23 0 -9 7
-30 15 -46 8 -15 15 -36 15 -45 0 -9 7 -25 15 -35 8 -11 15 -30 15 -42 0 -13
5 -26 10 -29 5 -3 10 -14 10 -23 0 -9 7 -30 15 -46 8 -15 15 -36 15 -45 0 -10
7 -26 15 -37 8 -10 15 -25 15 -33 0 -8 8 -32 17 -53 12 -28 23 -38 40 -38 30
0 48 33 28 50 -8 7 -15 25 -15 41 0 15 -4 30 -9 34 -5 3 -13 20 -17 37 -7 34
-10 42 -37 96 -9 19 -17 43 -17 55 0 12 -7 31 -15 41 -8 11 -15 30 -15 43 0
13 -4 23 -10 23 -5 0 -10 10 -10 23 0 13 -7 32 -15 43 -8 10 -15 28 -15 39 0
11 -7 29 -15 39 -21 28 -19 63 5 76 18 9 20 8 20 -15 0 -14 4 -25 8 -25 5 0
18 -21 30 -47 12 -27 28 -57 34 -68 7 -11 23 -37 35 -57 13 -21 23 -45 23 -53
0 -9 7 -18 15 -21 8 -4 15 -12 15 -19 0 -14 30 -76 41 -85 4 -3 9 -15 13 -27
4 -13 12 -23 17 -23 5 0 9 -8 9 -18 0 -10 5 -23 10 -28 6 -6 19 -26 29 -45 22
-41 55 -49 71 -18 7 12 8 24 4 28 -5 3 -18 24 -29 46 -11 22 -22 42 -25 45 -3
3 -15 25 -28 50 -12 25 -27 52 -32 60 -5 8 -11 22 -15 30 -3 8 -19 38 -35 65
-15 28 -39 70 -52 95 -13 25 -26 47 -29 50 -4 3 -9 15 -13 28 -4 12 -12 22
-17 22 -5 0 -9 9 -9 19 0 11 -4 23 -10 26 -6 4 -5 13 2 25 12 18 14 17 40 -12
15 -17 30 -40 34 -50 3 -10 10 -18 15 -18 5 0 9 -7 9 -15 0 -8 4 -15 9 -15 5
0 20 -17 32 -37 13 -21 28 -43 34 -49 5 -6 61 -81 124 -167 63 -86 121 -157
129 -157 14 0 41 27 42 41 0 3 -9 17 -21 30 -11 13 -29 34 -40 47 -10 12 -19
26 -19 32 0 5 -14 23 -30 40 -17 17 -30 33 -30 35 0 10 -64 95 -72 95 -4 0 -8
5 -8 11 0 6 -6 17 -12 24 -30 33 -38 45 -38 55 0 5 -4 10 -9 10 -5 0 -20 17
-32 38 -13 20 -33 47 -45 58 -23 22 -27 34 -25 66 1 10 92 -75 240 -224 198
-199 242 -239 259 -234 48 16 31 39 -212 284 -144 145 -234 242 -223 242 9 0
17 5 17 11 0 6 15 0 34 -15 19 -14 39 -26 45 -26 6 0 11 -4 11 -8 0 -4 18 -19
40 -32 22 -14 40 -28 40 -32 0 -5 5 -8 10 -8 6 0 23 -11 38 -25 15 -14 33 -25
40 -25 7 0 15 -7 18 -15 4 -8 12 -15 19 -15 7 0 15 -4 17 -8 2 -4 20 -18 41
-31 20 -12 37 -27 37 -32 0 -5 7 -9 15 -9 8 0 15 -3 15 -8 0 -4 15 -16 34 -26
19 -10 37 -25 40 -32 3 -8 12 -14 21 -14 8 0 15 -4 15 -10 0 -12 40 -13 59 -1
21 14 5 45 -39 72 -22 13 -40 27 -40 32 0 4 -7 7 -15 7 -8 0 -15 4 -15 8 0 5
-18 18 -40 31 -22 12 -40 26 -40 32 0 5 -5 9 -10 9 -6 0 -16 5 -23 10 -40 33
-209 150 -217 150 -5 0 -10 4 -10 9 0 8 -70 59 -100 73 -12 5 -12 7 3 7 9 1
17 8 17 16 0 19 11 19 36 0 10 -8 27 -15 36 -15 9 0 18 -4 20 -8 2 -5 35 -23
73 -41 39 -18 77 -36 85 -41 15 -9 104 -53 145 -71 11 -5 27 -13 35 -18 31
-19 186 -91 197 -91 19 0 35 28 28 50 -3 11 -14 20 -24 20 -10 0 -24 7 -31 15
-7 8 -18 15 -24 15 -6 0 -47 18 -91 40 -44 22 -85 40 -91 40 -6 0 -17 7 -24
15 -7 8 -21 15 -31 15 -11 0 -19 4 -19 9 0 5 -13 12 -30 16 -16 4 -30 11 -30
16 0 5 -11 9 -24 9 -13 0 -26 4 -28 8 -4 10 -130 72 -146 72 -7 0 -12 14 -12
32 0 25 3 29 12 20 7 -7 23 -12 37 -12 15 -1 37 -7 51 -15 14 -8 38 -14 53
-15 16 0 35 -7 43 -15 9 -8 28 -15 44 -15 16 0 32 -4 35 -10 3 -5 16 -10 28
-10 12 0 35 -7 51 -15 15 -8 39 -15 53 -15 13 0 31 -7 39 -15 9 -8 26 -15 40
-15 13 0 32 -4 42 -9 9 -6 43 -18 76 -27 66 -20 91 -12 91 27 0 20 -6 24 -37
27 -20 2 -42 10 -48 18 -7 8 -28 14 -46 14 -19 0 -34 4 -34 8 0 8 -59 26 -125
39 -16 3 -39 12 -50 19 -11 8 -34 14 -52 14 -18 0 -33 4 -33 9 0 6 -20 13 -45
17 -25 3 -48 10 -51 15 -3 5 -17 9 -32 9 -15 0 -36 7 -46 15 -11 8 -31 15 -44
15 -21 0 -23 3 -17 27 4 16 8 29 9 30 1 1 20 -4 41 -12 22 -8 66 -14 97 -15
31 0 60 -4 63 -10 3 -5 35 -10 71 -10 36 0 81 -7 101 -15 20 -9 66 -15 108
-15 43 0 75 -4 77 -11 2 -6 30 -13 63 -16 70 -6 102 10 91 44 -7 22 -47 33
-128 33 -26 0 -50 5 -53 10 -3 6 -39 10 -78 10 -43 1 -82 6 -97 15 -15 9 -54
14 -101 15 -41 0 -79 4 -85 10 -5 5 -45 13 -87 16 -76 7 -77 7 -77 35 l0 29
351 0 c376 0 379 0 379 50 l0 22 -312 -6 c-172 -3 -337 -9 -365 -12 -52 -6
-53 -5 -53 19 0 23 5 26 55 32 30 4 55 11 55 16 0 5 24 9 53 9 31 0 61 6 73
15 11 8 41 15 71 15 28 0 54 4 57 9 3 5 33 12 66 16 33 4 63 11 66 16 3 5 29
9 58 9 30 0 60 6 72 15 10 8 34 15 52 15 30 0 32 2 32 35 0 33 -2 35 -34 35
-19 0 -37 -4 -40 -9 -3 -5 -33 -12 -66 -16 -33 -4 -63 -11 -66 -16 -3 -5 -24
-9 -47 -9 -23 0 -55 -7 -71 -15 -15 -8 -48 -15 -72 -15 -23 0 -45 -4 -48 -9
-3 -5 -33 -12 -66 -16 -33 -4 -63 -11 -66 -16 -3 -5 -26 -9 -52 -9 -26 0 -53
-4 -61 -9 -20 -13 -41 -2 -41 20 0 13 7 19 24 19 14 0 31 7 40 15 8 8 24 15
34 15 11 0 33 6 49 14 43 21 75 34 106 40 15 4 27 11 27 16 0 6 12 10 28 10
15 0 36 7 46 15 11 8 30 15 43 15 13 0 23 5 23 10 0 6 10 10 23 10 13 0 32 7
43 15 10 8 28 15 39 15 11 0 29 7 39 15 11 8 27 15 36 15 34 0 80 31 80 53 0
39 -13 48 -44 32 -16 -8 -36 -15 -45 -15 -10 0 -26 -7 -37 -15 -10 -8 -29 -15
-41 -15 -13 0 -23 -4 -23 -10 0 -5 -8 -10 -17 -10 -10 0 -31 -7 -47 -15 -15
-8 -36 -15 -45 -15 -9 0 -25 -7 -35 -15 -11 -8 -27 -15 -36 -15 -16 0 -59 -17
-102 -41 -10 -5 -26 -9 -37 -9 -10 0 -24 -7 -31 -15 -7 -8 -22 -15 -35 -15
-12 0 -36 -7 -53 -16 -38 -18 -76 -15 -80 7 -2 9 12 23 35 35 21 10 40 22 41
27 2 4 12 7 23 7 11 0 22 7 25 15 4 8 14 15 24 15 10 0 23 7 30 15 7 8 21 15
30 15 10 0 20 3 22 8 2 4 21 16 43 27 22 11 45 24 50 28 16 13 98 57 128 68
15 6 27 15 27 20 0 5 7 9 15 9 9 0 33 11 55 25 22 14 44 25 49 25 16 0 33 39
26 60 -4 11 -11 20 -16 20 -14 0 -83 -34 -144 -71 -27 -16 -62 -35 -77 -40
-16 -6 -28 -14 -28 -17 0 -4 -20 -16 -45 -27 -25 -11 -45 -22 -45 -26 0 -4
-11 -10 -25 -13 -14 -4 -25 -11 -25 -16 0 -6 -9 -10 -19 -10 -11 0 -22 -4 -25
-9 -5 -8 -37 -27 -118 -68 -15 -8 -30 -18 -33 -24 -4 -5 -15 -9 -26 -9 -10 0
-19 -5 -19 -10 0 -7 -5 -6 -13 2 -11 10 -11 15 2 30 8 10 21 18 27 18 6 0 22
10 36 23 28 24 55 44 78 54 8 4 26 17 40 30 14 13 31 23 38 23 7 0 15 7 18 15
4 8 12 15 20 15 8 0 14 5 14 10 0 6 6 10 13 10 7 0 26 12 43 28 17 15 47 36
67 46 21 11 37 23 37 28 0 4 4 8 10 8 5 0 37 19 69 43 63 44 75 72 47 110 -17
21 -35 22 -66 0z"/>
</g>
</svg>
