<?xml version="1.0" standalone="no"?>
<!DOCTYPE svg PUBLIC "-//W3C//DTD SVG 20010904//EN"
 "http://www.w3.org/TR/2001/REC-SVG-20010904/DTD/svg10.dtd">
<svg version="1.0" xmlns="http://www.w3.org/2000/svg"
 width="96.000000pt" height="96.000000pt" viewBox="0 0 96.000000 96.000000"
 preserveAspectRatio="xMidYMid meet">
<metadata>
Created by potrace 1.11, written by Peter Selinger 2001-2013
</metadata>
<g transform="translate(0.000000,96.000000) scale(0.100000,-0.100000)"
fill="#000000" stroke="none">
<path d="M720 849 c-36 -28 -74 -58 -85 -67 -11 -9 -56 -43 -99 -76 -73 -55
-82 -58 -142 -62 -76 -4 -98 -14 -112 -51 -15 -39 -33 -135 -27 -141 3 -3 -3
-15 -13 -26 -32 -36 -184 -247 -180 -251 25 -23 117 -70 168 -86 66 -21 176
-27 240 -15 206 41 359 183 410 381 23 88 24 181 4 258 -14 54 -75 179 -89
183 -6 2 -39 -20 -75 -47z"/>
</g>
</svg>
